<svg xmlns="http://www.w3.org/2000/svg" width="1920" height="1080"><path d="M1479,1604L882,1736L2083,1693Z" fill="#383838" stroke="#383838" stroke-width="1.51"/><path d="M866,-617L967,-599L2086,-483Z" fill="#b7b7b7" stroke="#b7b7b7" stroke-width="1.51"/><path d="M967,-599L1672,-392L2086,-483Z" fill="#a9a9a9" stroke="#a9a9a9" stroke-width="1.51"/><path d="M1864,1248L2172,1649L2543,1040Z" fill="#2c2c2c" stroke="#2c2c2c" stroke-width="1.51"/><path d="M1864,1248L2543,1040L2552,858Z" fill="#393939" stroke="#393939" stroke-width="1.51"/><path d="M1758,696L1864,1248L2552,858Z" fill="#4b4b4b" stroke="#4b4b4b" stroke-width="1.51"/><path d="M1777,641L1758,696L2552,858Z" fill="#585858" stroke="#585858" stroke-width="1.51"/><path d="M2417,288L1976,361L2552,858Z" fill="#565656" stroke="#565656" stroke-width="1.51"/><path d="M1976,361L1777,641L2552,858Z" fill="#5a5a5a" stroke="#5a5a5a" stroke-width="1.51"/><path d="M2406,119L2417,288L2552,858Z" fill="#545454" stroke="#545454" stroke-width="1.51"/><path d="M2211,-265L2052,-153L2406,119Z" fill="#777777" stroke="#777777" stroke-width="1.51"/><path d="M2406,119L1976,361L2417,288Z" fill="#666666" stroke="#666666" stroke-width="1.51"/><path d="M2052,-153L1976,361L2406,119Z" fill="#737373" stroke="#737373" stroke-width="1.51"/><path d="M1864,1248L2083,1693L2172,1649Z" fill="#272727" stroke="#272727" stroke-width="1.51"/><path d="M2086,-483L2052,-153L2211,-265Z" fill="#848484" stroke="#848484" stroke-width="1.51"/><path d="M1692,-169L1976,361L2052,-153Z" fill="#868686" stroke="#868686" stroke-width="1.51"/><path d="M1672,-392L1692,-169L2052,-153Z" fill="#969696" stroke="#969696" stroke-width="1.51"/><path d="M1864,1248L1479,1604L2083,1693Z" fill="#343434" stroke="#343434" stroke-width="1.51"/><path d="M1672,-392L2052,-153L2086,-483Z" fill="#919191" stroke="#919191" stroke-width="1.51"/><path d="M1429,411L1777,641L1976,361Z" fill="#797979" stroke="#797979" stroke-width="1.51"/><path d="M1692,-169L1429,411L1976,361Z" fill="#8a8a8a" stroke="#8a8a8a" stroke-width="1.51"/><path d="M1264,1051L1466,1325L1758,696Z" fill="#636363" stroke="#636363" stroke-width="1.51"/><path d="M1758,696L1466,1325L1864,1248Z" fill="#575757" stroke="#575757" stroke-width="1.51"/><path d="M1466,1325L1479,1604L1864,1248Z" fill="#454545" stroke="#454545" stroke-width="1.51"/><path d="M1255,-217L1429,411L1692,-169Z" fill="#9d9d9d" stroke="#9d9d9d" stroke-width="1.51"/><path d="M1293,689L1264,1051L1758,696Z" fill="#717171" stroke="#717171" stroke-width="1.51"/><path d="M1429,411L1758,696L1777,641Z" fill="#757575" stroke="#757575" stroke-width="1.51"/><path d="M1429,411L1293,689L1758,696Z" fill="#7b7b7b" stroke="#7b7b7b" stroke-width="1.51"/><path d="M967,-599L1255,-217L1672,-392Z" fill="#b3b3b3" stroke="#b3b3b3" stroke-width="1.51"/><path d="M1672,-392L1255,-217L1692,-169Z" fill="#a4a4a4" stroke="#a4a4a4" stroke-width="1.51"/><path d="M1255,-217L993,353L1429,411Z" fill="#a0a0a0" stroke="#a0a0a0" stroke-width="1.51"/><path d="M1466,1325L1037,1450L1479,1604Z" fill="#4b4b4b" stroke="#4b4b4b" stroke-width="1.51"/><path d="M1037,1450L882,1736L1479,1604Z" fill="#4b4b4b" stroke="#4b4b4b" stroke-width="1.51"/><path d="M1264,1051L1037,1450L1466,1325Z" fill="#5c5c5c" stroke="#5c5c5c" stroke-width="1.51"/><path d="M993,353L1293,689L1429,411Z" fill="#8d8d8d" stroke="#8d8d8d" stroke-width="1.51"/><path d="M-19,1483L-521,1668L882,1736Z" fill="#6e6e6e" stroke="#6e6e6e" stroke-width="1.51"/><path d="M664,-142L993,353L1255,-217Z" fill="#b4b4b4" stroke="#b4b4b4" stroke-width="1.51"/><path d="M865,595L691,954L1264,1051Z" fill="#848484" stroke="#848484" stroke-width="1.51"/><path d="M865,595L1264,1051L1293,689Z" fill="#808080" stroke="#808080" stroke-width="1.51"/><path d="M993,353L865,595L1293,689Z" fill="#919191" stroke="#919191" stroke-width="1.51"/><path d="M691,954L1037,1450L1264,1051Z" fill="#717171" stroke="#717171" stroke-width="1.51"/><path d="M967,-599L664,-142L1255,-217Z" fill="#c1c1c1" stroke="#c1c1c1" stroke-width="1.51"/><path d="M541,1510L-19,1483L882,1736Z" fill="#676767" stroke="#676767" stroke-width="1.51"/><path d="M866,-617L664,-142L967,-599Z" fill="#cbcbcb" stroke="#cbcbcb" stroke-width="1.51"/><path d="M664,-142L627,356L993,353Z" fill="#b5b5b5" stroke="#b5b5b5" stroke-width="1.51"/><path d="M541,1510L882,1736L1037,1450Z" fill="#595959" stroke="#595959" stroke-width="1.51"/><path d="M691,954L541,1510L1037,1450Z" fill="#6f6f6f" stroke="#6f6f6f" stroke-width="1.51"/><path d="M450,1083L541,1510L691,954Z" fill="#828282" stroke="#828282" stroke-width="1.51"/><path d="M627,356L865,595L993,353Z" fill="#a3a3a3" stroke="#a3a3a3" stroke-width="1.51"/><path d="M538,749L691,954L865,595Z" fill="#959595" stroke="#959595" stroke-width="1.51"/><path d="M214,-371L664,-142L866,-617Z" fill="#d6d6d6" stroke="#d6d6d6" stroke-width="1.51"/><path d="M627,356L538,749L865,595Z" fill="#a2a2a2" stroke="#a2a2a2" stroke-width="1.51"/><path d="M125,-537L214,-371L866,-617Z" fill="#dfdfdf" stroke="#dfdfdf" stroke-width="1.51"/><path d="M379,-127L513,372L627,356Z" fill="#c1c1c1" stroke="#c1c1c1" stroke-width="1.51"/><path d="M513,372L538,749L627,356Z" fill="#acacac" stroke="#acacac" stroke-width="1.51"/><path d="M214,-371L379,-127L664,-142Z" fill="#d6d6d6" stroke="#d6d6d6" stroke-width="1.51"/><path d="M379,-127L627,356L664,-142Z" fill="#c7c7c7" stroke="#c7c7c7" stroke-width="1.51"/><path d="M538,749L450,1083L691,954Z" fill="#929292" stroke="#929292" stroke-width="1.51"/><path d="M379,-127L-116,189L513,372Z" fill="#cccccc" stroke="#cccccc" stroke-width="1.51"/><path d="M513,372L100,890L538,749Z" fill="#a7a7a7" stroke="#a7a7a7" stroke-width="1.51"/><path d="M100,890L450,1083L538,749Z" fill="#9a9a9a" stroke="#9a9a9a" stroke-width="1.51"/><path d="M450,1083L-19,1483L541,1510Z" fill="#7a7a7a" stroke="#7a7a7a" stroke-width="1.51"/><path d="M-116,189L100,890L513,372Z" fill="#bbbbbb" stroke="#bbbbbb" stroke-width="1.51"/><path d="M-42,-80L-116,189L379,-127Z" fill="#d9d9d9" stroke="#d9d9d9" stroke-width="1.51"/><path d="M100,890L-93,1039L450,1083Z" fill="#9b9b9b" stroke="#9b9b9b" stroke-width="1.51"/><path d="M-93,1039L-19,1483L450,1083Z" fill="#8e8e8e" stroke="#8e8e8e" stroke-width="1.51"/><path d="M214,-371L-42,-80L379,-127Z" fill="#dddddd" stroke="#dddddd" stroke-width="1.51"/><path d="M-116,189L-356,933L100,890Z" fill="#b7b7b7" stroke="#b7b7b7" stroke-width="1.51"/><path d="M125,-537L-42,-80L214,-371Z" fill="#e5e5e5" stroke="#e5e5e5" stroke-width="1.51"/><path d="M-623,508L-356,933L-116,189Z" fill="#c4c4c4" stroke="#c4c4c4" stroke-width="1.51"/><path d="M-503,-392L-42,-80L125,-537Z" fill="#ececec" stroke="#ececec" stroke-width="1.51"/><path d="M-356,933L-93,1039L100,890Z" fill="#a5a5a5" stroke="#a5a5a5" stroke-width="1.51"/><path d="M-93,1039L-571,1202L-19,1483Z" fill="#949494" stroke="#949494" stroke-width="1.51"/><path d="M-571,1202L-521,1668L-19,1483Z" fill="#858585" stroke="#858585" stroke-width="1.51"/><path d="M-559,-45L-116,189L-42,-80Z" fill="#e0e0e0" stroke="#e0e0e0" stroke-width="1.51"/><path d="M-503,-392L-559,-45L-42,-80Z" fill="#ebebeb" stroke="#ebebeb" stroke-width="1.51"/><path d="M-356,933L-571,1202L-93,1039Z" fill="#a4a4a4" stroke="#a4a4a4" stroke-width="1.51"/><path d="M-559,-45L-623,508L-116,189Z" fill="#dbdbdb" stroke="#dbdbdb" stroke-width="1.51"/><path d="M-623,508L-571,1202L-356,933Z" fill="#b1b1b1" stroke="#b1b1b1" stroke-width="1.51"/></svg>